<svg width="42" height="30" viewBox="0 0 42 30" fill="none" xmlns="http://www.w3.org/2000/svg">
<path d="M33.6202 22.5H34.7402C35.2593 22.5 35.6802 22.0791 35.6802 21.56V8.44C35.6802 7.92085 35.2593 7.5 34.7402 7.5H33.6202C33.101 7.5 32.6802 7.92085 32.6802 8.44V21.56C32.6802 22.0791 33.101 22.5 33.6202 22.5Z" fill="url(#paint0_linear_2624_2374)"/>
<path d="M38.1202 22.5H40.5102C40.8205 22.5 41.1181 22.3767 41.3375 22.1573C41.5569 21.9379 41.6802 21.6403 41.6802 21.33V8.67C41.6802 8.51635 41.6499 8.36421 41.5911 8.22226C41.5323 8.08031 41.4461 7.95133 41.3375 7.84269C41.2288 7.73404 41.0999 7.64786 40.9579 7.58906C40.816 7.53026 40.6638 7.5 40.5102 7.5H38.1202C37.9967 7.5 37.8745 7.52431 37.7605 7.57155C37.6464 7.61879 37.5428 7.68803 37.4555 7.77532C37.3682 7.86261 37.299 7.96623 37.2517 8.08028C37.2045 8.19432 37.1802 8.31656 37.1802 8.44V21.56C37.1802 21.6834 37.2045 21.8057 37.2517 21.9197C37.299 22.0338 37.3682 22.1374 37.4555 22.2247C37.5428 22.312 37.6464 22.3812 37.7605 22.4284C37.8745 22.4757 37.9967 22.5 38.1202 22.5V22.5Z" fill="url(#paint1_linear_2624_2374)"/>
<path d="M0.730175 15.8903L15.7302 28.8203C15.9 28.9687 16.109 29.0649 16.3322 29.0972C16.5553 29.1296 16.7831 29.0968 16.9881 29.0028C17.193 28.9088 17.3665 28.7575 17.4875 28.5672C17.6085 28.377 17.6719 28.1557 17.6702 27.9303V22.5003H30.2402C30.3636 22.5003 30.4859 22.4759 30.5999 22.4287C30.7139 22.3815 30.8176 22.3122 30.9049 22.2249C30.9921 22.1376 31.0614 22.034 31.1086 21.92C31.1559 21.8059 31.1802 21.6837 31.1802 21.5603V8.44025C31.1802 8.19095 31.0811 7.95186 30.9049 7.77557C30.7286 7.59929 30.4895 7.50025 30.2402 7.50025H17.6802V2.07025C17.6819 1.84475 17.6185 1.62355 17.4975 1.43327C17.3765 1.24299 17.203 1.09173 16.9981 0.997696C16.7931 0.903666 16.5653 0.870872 16.3422 0.903259C16.119 0.935647 15.91 1.03184 15.7402 1.18025L0.740177 14.1103C0.610842 14.2194 0.50671 14.3552 0.434971 14.5085C0.363231 14.6617 0.325589 14.8287 0.324638 14.9979C0.323688 15.1672 0.359453 15.3346 0.429466 15.4886C0.499479 15.6427 0.602074 15.7797 0.730175 15.8903V15.8903Z" fill="url(#paint2_linear_2624_2374)"/>
<defs>
<linearGradient id="paint0_linear_2624_2374" x1="52.6802" y1="15" x2="22.2002" y2="15" gradientUnits="userSpaceOnUse">
<stop stop-color="#F95811"/>
<stop offset="0.52" stop-color="#F95811" stop-opacity="0.31"/>
<stop offset="1" stop-color="#F95811"/>
</linearGradient>
<linearGradient id="paint1_linear_2624_2374" x1="52.6802" y1="39" x2="22.2002" y2="39" gradientUnits="userSpaceOnUse">
<stop stop-color="#FEDCD1"/>
<stop offset="0.52" stop-color="#E3CDC6"/>
<stop offset="1" stop-color="#D87555" stop-opacity="0.68"/>
</linearGradient>
<linearGradient id="paint2_linear_2624_2374" x1="-8.98983" y1="15.0003" x2="65.2602" y2="15.0003" gradientUnits="userSpaceOnUse">
<stop stop-color="#F95811"/>
<stop offset="0.56" stop-color="#F95811" stop-opacity="0.67"/>
<stop offset="1" stop-color="#021E2F"/>
<stop offset="1" stop-color="#F95811"/>
</linearGradient>
</defs>
</svg>
